; Drill file
; Format: 2.4 (00.0000)
M48
INCH
T01C0.0283
%
G05
G90
T01
X005250Y007000
X006250Y007000
X007250Y007000
X008250Y007000
X009250Y007000
X010250Y007000
X011250Y007000
X012250Y007000
X013250Y007000
X014250Y007000
X015250Y007000
X016250Y007000
X017250Y007000
X018250Y007000
X021250Y007000
X022250Y007000
X023250Y007000
X024250Y007000
X025250Y007000
X026250Y007000
X027250Y007000
X028250Y007000
X029250Y007000
X030250Y007000
X031250Y007000
X032250Y007000
X033250Y007000
X034250Y007000
X028750Y008000
X029250Y013000
X030250Y013000
X031250Y013000
X032250Y013000
X033250Y013000
X034250Y013000
X028250Y013000
X027250Y013000
X026250Y013000
X025250Y013000
X024250Y013000
X023250Y013000
X022250Y013000
X021250Y013000
X021250Y014000
X022250Y014000
X023250Y014000
X026250Y014000
X027250Y014000
X028250Y014000
X019750Y013500
X018250Y013000
X017250Y013000
X016250Y013000
X015250Y013000
X014250Y013000
X013250Y013000
X012250Y013000
X011250Y013000
X010250Y013000
X009250Y013000
X008250Y013000
X007250Y013000
X006250Y013000
X005250Y013000
X019750Y015500
M30
