%FSLAX34Y34*%
%MOMM*%
%LNSOLDERMASK_BOTTOM*%
G71*
G01*
%ADD10R,2.000X9.090*%
%ADD11R,2.000X7.820*%
%ADD12C,2.000*%
%LPD*%
X133350Y50800D02*
G54D10*
D03*
X158750Y57150D02*
G54D11*
D03*
X184150Y57150D02*
G54D11*
D03*
X209550Y57150D02*
G54D11*
D03*
X234950Y57150D02*
G54D11*
D03*
X260350Y57150D02*
G54D11*
D03*
X285750Y57150D02*
G54D11*
D03*
X311150Y57150D02*
G54D11*
D03*
X336550Y57150D02*
G54D11*
D03*
X361950Y57150D02*
G54D11*
D03*
X387350Y57150D02*
G54D11*
D03*
X412750Y57150D02*
G54D11*
D03*
X438150Y57150D02*
G54D11*
D03*
X463550Y57150D02*
G54D11*
D03*
X488950Y57150D02*
G54D11*
D03*
X514350Y57150D02*
G54D11*
D03*
X539750Y57150D02*
G54D11*
D03*
X565150Y57150D02*
G54D11*
D03*
X590550Y57150D02*
G54D11*
D03*
X615950Y57150D02*
G54D11*
D03*
X641350Y57150D02*
G54D11*
D03*
X666750Y57150D02*
G54D11*
D03*
X692150Y57150D02*
G54D11*
D03*
X717550Y57150D02*
G54D11*
D03*
X742950Y57150D02*
G54D11*
D03*
X768350Y57150D02*
G54D11*
D03*
X793750Y57150D02*
G54D11*
D03*
X819150Y57150D02*
G54D11*
D03*
X844550Y57150D02*
G54D11*
D03*
X869950Y57150D02*
G54D11*
D03*
G36*
X123350Y187800D02*
X143350Y187800D01*
X143350Y167800D01*
X123350Y167800D01*
X123350Y187800D01*
G37*
X158750Y177800D02*
G54D12*
D03*
X184150Y177800D02*
G54D12*
D03*
X209550Y177800D02*
G54D12*
D03*
X234950Y177800D02*
G54D12*
D03*
X260350Y177800D02*
G54D12*
D03*
X285750Y177800D02*
G54D12*
D03*
X311150Y177800D02*
G54D12*
D03*
X336550Y177800D02*
G54D12*
D03*
X361950Y177800D02*
G54D12*
D03*
X387350Y177800D02*
G54D12*
D03*
X412750Y177800D02*
G54D12*
D03*
X438150Y177800D02*
G54D12*
D03*
X463550Y177800D02*
G54D12*
D03*
X463550Y330200D02*
G54D12*
D03*
X438150Y330200D02*
G54D12*
D03*
X412750Y330200D02*
G54D12*
D03*
X387350Y330200D02*
G54D12*
D03*
X361950Y330200D02*
G54D12*
D03*
X336550Y330200D02*
G54D12*
D03*
X311150Y330200D02*
G54D12*
D03*
X285750Y330200D02*
G54D12*
D03*
X260350Y330200D02*
G54D12*
D03*
X234950Y330200D02*
G54D12*
D03*
X209550Y330200D02*
G54D12*
D03*
X184150Y330200D02*
G54D12*
D03*
X158750Y330200D02*
G54D12*
D03*
X133350Y330200D02*
G54D12*
D03*
G36*
X529750Y187800D02*
X549750Y187800D01*
X549750Y167800D01*
X529750Y167800D01*
X529750Y187800D01*
G37*
X565150Y177800D02*
G54D12*
D03*
X590550Y177800D02*
G54D12*
D03*
X615950Y177800D02*
G54D12*
D03*
X641350Y177800D02*
G54D12*
D03*
X666750Y177800D02*
G54D12*
D03*
X692150Y177800D02*
G54D12*
D03*
X717550Y177800D02*
G54D12*
D03*
X742950Y177800D02*
G54D12*
D03*
X768350Y177800D02*
G54D12*
D03*
X793750Y177800D02*
G54D12*
D03*
X819150Y177800D02*
G54D12*
D03*
X844550Y177800D02*
G54D12*
D03*
X869950Y177800D02*
G54D12*
D03*
X869950Y330200D02*
G54D12*
D03*
X844550Y330200D02*
G54D12*
D03*
X819150Y330200D02*
G54D12*
D03*
X793750Y330200D02*
G54D12*
D03*
X768350Y330200D02*
G54D12*
D03*
X742950Y330200D02*
G54D12*
D03*
X717550Y330200D02*
G54D12*
D03*
X692150Y330200D02*
G54D12*
D03*
X666750Y330200D02*
G54D12*
D03*
X641350Y330200D02*
G54D12*
D03*
X615950Y330200D02*
G54D12*
D03*
X590550Y330200D02*
G54D12*
D03*
X565150Y330200D02*
G54D12*
D03*
X539750Y330200D02*
G54D12*
D03*
X666750Y355600D02*
G54D12*
D03*
X692150Y355600D02*
G54D12*
D03*
X717550Y355600D02*
G54D12*
D03*
X539750Y355600D02*
G54D12*
D03*
X565150Y355600D02*
G54D12*
D03*
X590550Y355600D02*
G54D12*
D03*
X730250Y203200D02*
G54D12*
D03*
X501650Y393700D02*
G54D12*
D03*
X501650Y342900D02*
G54D12*
D03*
M02*
