%FSLAX34Y34*%
%MOMM*%
%LNCOPPER_TOP*%
G71*
G01*
%ADD10C,1.400*%
%ADD11R,1.800X8.890*%
%ADD12R,1.800X7.620*%
%ADD13C,0.300*%
%ADD14C,0.600*%
%LPD*%
G36*
X126350Y184800D02*
X140350Y184800D01*
X140350Y170800D01*
X126350Y170800D01*
X126350Y184800D01*
G37*
X158750Y177800D02*
G54D10*
D03*
X184150Y177800D02*
G54D10*
D03*
X209550Y177800D02*
G54D10*
D03*
X234950Y177800D02*
G54D10*
D03*
X260350Y177800D02*
G54D10*
D03*
X285750Y177800D02*
G54D10*
D03*
X311150Y177800D02*
G54D10*
D03*
X336550Y177800D02*
G54D10*
D03*
X361950Y177800D02*
G54D10*
D03*
X387350Y177800D02*
G54D10*
D03*
X412750Y177800D02*
G54D10*
D03*
X438150Y177800D02*
G54D10*
D03*
X463550Y177800D02*
G54D10*
D03*
X463550Y330200D02*
G54D10*
D03*
X438150Y330200D02*
G54D10*
D03*
X412750Y330200D02*
G54D10*
D03*
X387350Y330200D02*
G54D10*
D03*
X361950Y330200D02*
G54D10*
D03*
X336550Y330200D02*
G54D10*
D03*
X311150Y330200D02*
G54D10*
D03*
X285750Y330200D02*
G54D10*
D03*
X260350Y330200D02*
G54D10*
D03*
X234950Y330200D02*
G54D10*
D03*
X209550Y330200D02*
G54D10*
D03*
X184150Y330200D02*
G54D10*
D03*
X158750Y330200D02*
G54D10*
D03*
X133350Y330200D02*
G54D10*
D03*
G36*
X532750Y184800D02*
X546750Y184800D01*
X546750Y170800D01*
X532750Y170800D01*
X532750Y184800D01*
G37*
X565150Y177800D02*
G54D10*
D03*
X590550Y177800D02*
G54D10*
D03*
X615950Y177800D02*
G54D10*
D03*
X641350Y177800D02*
G54D10*
D03*
X666750Y177800D02*
G54D10*
D03*
X692150Y177800D02*
G54D10*
D03*
X717550Y177800D02*
G54D10*
D03*
X742950Y177800D02*
G54D10*
D03*
X768350Y177800D02*
G54D10*
D03*
X793750Y177800D02*
G54D10*
D03*
X819150Y177800D02*
G54D10*
D03*
X844550Y177800D02*
G54D10*
D03*
X869950Y177800D02*
G54D10*
D03*
X869950Y330200D02*
G54D10*
D03*
X844550Y330200D02*
G54D10*
D03*
X819150Y330200D02*
G54D10*
D03*
X793750Y330200D02*
G54D10*
D03*
X768350Y330200D02*
G54D10*
D03*
X742950Y330200D02*
G54D10*
D03*
X717550Y330200D02*
G54D10*
D03*
X692150Y330200D02*
G54D10*
D03*
X666750Y330200D02*
G54D10*
D03*
X641350Y330200D02*
G54D10*
D03*
X615950Y330200D02*
G54D10*
D03*
X590550Y330200D02*
G54D10*
D03*
X565150Y330200D02*
G54D10*
D03*
X539750Y330200D02*
G54D10*
D03*
X133350Y50800D02*
G54D11*
D03*
X158750Y57150D02*
G54D12*
D03*
X184150Y57150D02*
G54D12*
D03*
X209550Y57150D02*
G54D12*
D03*
X234950Y57150D02*
G54D12*
D03*
X260350Y57150D02*
G54D12*
D03*
X285750Y57150D02*
G54D12*
D03*
X311150Y57150D02*
G54D12*
D03*
X336550Y57150D02*
G54D12*
D03*
X361950Y57150D02*
G54D12*
D03*
X387350Y57150D02*
G54D12*
D03*
X412750Y57150D02*
G54D12*
D03*
X438150Y57150D02*
G54D12*
D03*
X463550Y57150D02*
G54D12*
D03*
X488950Y57150D02*
G54D12*
D03*
X514350Y50800D02*
G54D11*
D03*
X539750Y57150D02*
G54D12*
D03*
X565150Y57150D02*
G54D12*
D03*
X590550Y57150D02*
G54D12*
D03*
X615950Y57150D02*
G54D12*
D03*
X641350Y57150D02*
G54D12*
D03*
X666750Y57150D02*
G54D12*
D03*
X692150Y57150D02*
G54D12*
D03*
X717550Y57150D02*
G54D12*
D03*
X742950Y57150D02*
G54D12*
D03*
X768350Y57150D02*
G54D12*
D03*
X793750Y57150D02*
G54D12*
D03*
X819150Y57150D02*
G54D12*
D03*
X844550Y57150D02*
G54D12*
D03*
X869950Y50800D02*
G54D11*
D03*
G54D13*
X438150Y57150D02*
X438150Y101600D01*
X361950Y177800D01*
G54D13*
X412750Y57150D02*
X412750Y101600D01*
X336550Y177800D01*
G54D13*
X387350Y57150D02*
X387350Y101600D01*
X311150Y177800D01*
G54D13*
X361950Y57150D02*
X361950Y101600D01*
X285750Y177800D01*
G54D13*
X336550Y57150D02*
X336550Y101600D01*
X260350Y177800D01*
G54D13*
X311150Y57150D02*
X311150Y101600D01*
X234950Y177800D01*
G54D13*
X285750Y57150D02*
X285750Y101600D01*
X209550Y177800D01*
G54D13*
X260350Y57150D02*
X260350Y101600D01*
X184150Y177800D01*
G54D14*
X514350Y57150D02*
X514350Y127000D01*
X463550Y177800D01*
X463550Y304800D01*
X501650Y342900D01*
X501650Y368300D01*
G54D13*
X234950Y57150D02*
X234950Y101600D01*
X171450Y165100D01*
X171450Y241300D01*
X209550Y279400D01*
X209550Y330200D01*
G54D13*
X209550Y57150D02*
X209550Y101600D01*
X146050Y165100D01*
X146050Y241300D01*
X196850Y292100D01*
X196850Y342900D01*
X209550Y355600D01*
X222250Y355600D01*
X234950Y342900D01*
X234950Y330200D01*
G54D13*
X184150Y57150D02*
X184150Y101600D01*
X120650Y165100D01*
X120650Y342900D01*
X146050Y368300D01*
X234950Y368300D01*
X247650Y355600D01*
X247650Y317500D01*
X260350Y304800D01*
X298450Y304800D01*
X311150Y317500D01*
X311150Y330200D01*
G54D13*
X158750Y57150D02*
X158750Y114300D01*
X107950Y165100D01*
X107950Y342900D01*
X146050Y381000D01*
X247650Y381000D01*
X260350Y368300D01*
X260350Y330200D01*
G54D14*
X133350Y50800D02*
X133350Y114300D01*
X95250Y152400D01*
X95250Y355600D01*
X133350Y393700D01*
X260350Y393700D01*
X285750Y368300D01*
X514350Y368300D01*
X527050Y381000D01*
X844550Y381000D01*
X895350Y330200D01*
X895350Y203200D01*
X869950Y177800D01*
G54D13*
X819150Y57150D02*
X819150Y127000D01*
X844550Y152400D01*
X844550Y177800D01*
G54D13*
X793750Y57150D02*
X793750Y127000D01*
X819150Y152400D01*
X819150Y177800D01*
G54D13*
X768350Y57150D02*
X768350Y127000D01*
X793750Y152400D01*
X793750Y177800D01*
G54D13*
X742950Y57150D02*
X742950Y127000D01*
X768350Y152400D01*
X768350Y177800D01*
G54D13*
X717550Y57150D02*
X717550Y127000D01*
X742950Y152400D01*
X742950Y177800D01*
G54D13*
X692150Y57150D02*
X692150Y127000D01*
X717550Y152400D01*
X717550Y177800D01*
G54D13*
X666750Y57150D02*
X666750Y127000D01*
X692150Y152400D01*
X692150Y177800D01*
G54D13*
X641350Y57150D02*
X641350Y127000D01*
X666750Y152400D01*
X666750Y177800D01*
G54D13*
X615950Y57150D02*
X615950Y127000D01*
X641350Y152400D01*
X641350Y177800D01*
G54D13*
X590550Y57150D02*
X590550Y127000D01*
X615950Y152400D01*
X615950Y177800D01*
G54D13*
X844550Y57150D02*
X844550Y127000D01*
X857250Y139700D01*
X857250Y254000D01*
X869950Y266700D01*
X869950Y330200D01*
G54D14*
X869950Y50800D02*
X869950Y152400D01*
X908050Y190500D01*
X908050Y342900D01*
X857250Y393700D01*
X501650Y393700D01*
X666750Y355600D02*
G54D10*
D03*
X692150Y355600D02*
G54D10*
D03*
X717550Y355600D02*
G54D10*
D03*
G54D13*
X692150Y355600D02*
X704850Y342900D01*
X704850Y317500D01*
X641350Y254000D01*
X615950Y254000D01*
X552450Y190500D01*
X552450Y139700D01*
X565150Y127000D01*
X565150Y57150D01*
G54D13*
X692150Y330200D02*
X641350Y279400D01*
X615950Y279400D01*
X527050Y190500D01*
X527050Y139700D01*
X539750Y127000D01*
X539750Y57150D01*
X539750Y355600D02*
G54D10*
D03*
X565150Y355600D02*
G54D10*
D03*
X590550Y355600D02*
G54D10*
D03*
G54D13*
X590550Y330200D02*
X590550Y355600D01*
G54D13*
X565150Y177800D02*
X590550Y203200D01*
X730250Y203200D01*
X730250Y203200D02*
G54D10*
D03*
G54D13*
X590550Y355600D02*
X590550Y381000D01*
G54D13*
X336550Y330200D02*
X336550Y368300D01*
X501650Y393700D02*
G54D10*
D03*
X501650Y342900D02*
G54D10*
D03*
M02*
